<svg width="553" height="732" viewBox="0 0 553 732" fill="none" xmlns="http://www.w3.org/2000/svg">
<path d="M153.989 134.263C119.527 134.263 120.526 81.7958 153.989 81.7958C187.451 81.7958 188.45 134.263 153.989 134.263Z" fill="#2F323A"/>
<path d="M399.715 149.753C365.254 149.753 366.253 97.286 399.715 97.286C433.178 97.286 434.177 149.753 399.715 149.753Z" fill="#2F323A"/>
<path d="M273.356 324.643C292.335 324.643 337.326 309.195 331.291 303.157C319.305 291.164 292.834 316.648 273.356 316.648C253.877 316.648 232.401 284.169 209.427 295.162C200.304 299.527 254.377 324.643 273.356 324.643Z" fill="#2F323A"/>
<path d="M217.418 62.8077C227.428 46.6293 212.424 12.3395 191.946 12.3395C133.012 12.3395 96.053 -2.42676 80.0708 0.347004C31.1253 8.84164 34.6213 51.315 47.6068 60.809C54.0996 59.3099 71.4643 38.892 80.0708 39.3225C120.026 41.3212 204.433 83.7945 217.418 62.8077Z" fill="#2F323A"/>
<path d="M515.587 115.774C518.583 84.2942 505.598 69.8033 484.122 61.8084C441.169 45.8184 416.696 68.8494 356.763 54.3131C340.281 50.3156 303.822 77.2986 326.796 95.787C349.771 114.275 423.189 83.8081 470.636 92.7888C480.213 94.6014 501.602 108.279 515.587 115.774Z" fill="#2F323A"/>
<path fill-rule="evenodd" clip-rule="evenodd" d="M141.003 321.146C122.818 327.605 113.292 336.349 97.5515 361.62C49.1052 300.159 31.1253 221.208 43.6114 115.774L31.1253 106.28C-86.744 462.556 160.481 725.391 268.361 731.887C376.242 738.383 628.461 464.055 531.07 128.766L518.583 141.258C525.747 275.963 502.919 333.484 425.686 411.589C422.417 377.631 418.958 361.115 405.709 342.632C385.922 348.189 373.07 345.905 342.279 335.636C307.817 324.144 291.84 325.386 268.361 341.133C252.086 325.184 243.889 317.941 199.938 326.142C171.265 331.493 159.083 329.467 141.003 321.146ZM262.368 399.096C222.791 425.877 199.13 417.219 155.986 386.604C144 484.543 158.983 497.035 208.928 529.015C212.923 482.544 171.969 482.544 179.46 421.582C241.662 457.827 278.506 460.054 347.274 436.073C347.274 489.54 289.837 483.543 299.327 533.012C349.564 509.151 373.895 490.863 372.745 414.587C314.7 432.473 289.067 431.427 262.368 399.096Z" fill="#2F323A"/>
<path fill-rule="evenodd" clip-rule="evenodd" d="M16.4986 71.731C42.474 52.7837 186.837 57.2712 257.77 81.7033C267.964 85.2144 290.239 84.6951 304.226 81.7033C401.822 60.8277 516.525 79.2102 543 91.6756L539.004 131.565C523.518 134.058 510.031 191.399 500.041 202.369C468.071 229.294 350.183 224.308 328.703 212.341C311.147 202.56 289.24 134.058 282.247 130.568C277.582 128.24 274.235 128.468 268.26 130.568C260.268 133.377 234.212 199.158 216.309 205.859C173.85 221.752 69.948 203.366 55.4617 186.911C33.5129 161.981 42.474 124.086 15 109.127L16.4986 71.731ZM235.791 112.119C221.571 81.7033 73.1041 72.2296 61.456 91.177C53.9746 103.347 57.4598 159.63 66.4513 167.465C97.9215 194.889 196.828 196.643 205.819 189.405C221.305 176.939 246.281 134.557 235.791 112.119ZM496.544 111.122C492.257 93.6701 335.197 97.659 321.21 111.122C303.517 128.151 336.695 192.092 343.189 194.889C390.644 215.333 484.423 196.404 488.552 185.416C490.05 181.427 505.868 149.081 496.544 111.122Z" fill="#33658A"/>
</svg>
